HIERARCHY
ROOT Hips
{
 OFFSET 0.000000 0.000000 0.000000
 CHANNELS 6 Xposition Yposition Zposition Yrotation Xrotation Zrotation
 JOINT Chest
 {
  OFFSET 0.000000 13.173100 -0.061900
  CHANNELS 3 Yrotation Xrotation Zrotation
  JOINT Chest2
  {
   OFFSET 0.000000 8.040800 0.126200
   CHANNELS 3 Yrotation Xrotation Zrotation
   JOINT Chest3
   {
    OFFSET 0.000000 7.994400 0.000000
    CHANNELS 3 Yrotation Xrotation Zrotation
    JOINT Chest4
    {
     OFFSET 0.000000 7.986200 0.000000
     CHANNELS 3 Yrotation Xrotation Zrotation
     JOINT Neck
     {
      OFFSET 0.000000 12.259400 0.000000
      CHANNELS 3 Yrotation Xrotation Zrotation
      JOINT Head
      {
       OFFSET 0.000000 7.518700 0.267100
       CHANNELS 3 Yrotation Xrotation Zrotation
       End Site
       {
        OFFSET 0.000000 13.617700 0.141000
       }
      }
     }
     JOINT RightCollar
     {
      OFFSET -2.983800 8.314300 0.000000
      CHANNELS 3 Yrotation Xrotation Zrotation
      JOINT RightShoulder
      {
       OFFSET -16.133400 0.000000 0.000000
       CHANNELS 3 Yrotation Xrotation Zrotation
       JOINT RightElbow
       {
        OFFSET 0.000000 -29.822100 0.000000
        CHANNELS 3 Yrotation Xrotation Zrotation
        JOINT RightWrist
        {
         OFFSET 0.000000 -24.437700 0.010900
         CHANNELS 3 Yrotation Xrotation Zrotation
         End Site
         {
          OFFSET 0.000000 -18.312300 0.000000
         }
        }
       }
      }
     }
     JOINT LeftCollar
     {
      OFFSET 2.983800 8.314300 0.000000
      CHANNELS 3 Yrotation Xrotation Zrotation
      JOINT LeftShoulder
      {
       OFFSET 16.133400 0.000000 0.000000
       CHANNELS 3 Yrotation Xrotation Zrotation
       JOINT LeftElbow
       {
        OFFSET 0.000000 -29.822100 0.000000
        CHANNELS 3 Yrotation Xrotation Zrotation
        JOINT LeftWrist
        {
         OFFSET 0.000000 -24.437700 0.010900
         CHANNELS 3 Yrotation Xrotation Zrotation
         End Site
         {
          OFFSET 0.000000 -18.312300 0.000000
         }
        }
       }
      }
     }
    }
   }
  }
 }
 JOINT RightHip
 {
  OFFSET -11.206700 0.306200 0.030900
  CHANNELS 3 Yrotation Xrotation Zrotation
  JOINT RightKnee
  {
   OFFSET 0.000000 -57.334900 0.009400
   CHANNELS 3 Yrotation Xrotation Zrotation
   JOINT RightAnkle
   {
    OFFSET 0.000000 -43.376200 0.036600
    CHANNELS 3 Yrotation Xrotation Zrotation
    JOINT RightToe
    {
     OFFSET 0.000000 -10.035500 18.363100
     CHANNELS 3 Yrotation Xrotation Zrotation
     End Site
     {
      OFFSET 0.000000 -1.618500 7.239000
     }
    }
   }
  }
 }
 JOINT LeftHip
 {
  OFFSET 11.206700 0.306200 0.030900
  CHANNELS 3 Yrotation Xrotation Zrotation
  JOINT LeftKnee
  {
   OFFSET 0.000000 -57.334900 0.009400
   CHANNELS 3 Yrotation Xrotation Zrotation
   JOINT LeftAnkle
   {
    OFFSET 0.000000 -43.376200 0.036600
    CHANNELS 3 Yrotation Xrotation Zrotation
    JOINT LeftToe
    {
     OFFSET 0.000000 -10.035500 18.363100
     CHANNELS 3 Yrotation Xrotation Zrotation
     End Site
     {
      OFFSET 0.000000 -1.618500 7.239000
     }
    }
   }
  }
 }
}
MOTION
Frames: 8
Frame Time: 0.008333
0.000000 110.232800 0.000000 0.000000 -5.767877 0.000000 0.000000 11.653817 0.000000 0.000000 -5.885947 0.000000 0.000000 -0.000000 0.000000 0.000000 -0.000000 0.000000 0.000000 12.528835 0.000000 0.000000 0.711642 0.000000 0.000000 -0.000000 0.000000 0.000000 0.000000 -90.000000 0.000000 -2.309062 0.000000 0.000000 2.309062 0.000000 0.000000 -0.000000 0.000000 0.000000 -0.000000 90.000000 0.000000 -2.309062 0.000000 0.000000 2.309062 0.000000 0.000000 8.520406 0.000000 0.000000 1.905762 0.000000 -0.000000 -4.658285 0.000000 0.000000 -0.000000 0.000000 0.000000 8.520406 0.000000 0.000000 1.905762 0.000000 -0.000000 -4.658285 0.000000 0.000000 -0.000000 0.000000
-96.767830 64.162506 87.865295 173.625745 -36.287276 -2.294006 2.785170 25.422272 2.617279 0.360564 4.184232 0.542281 0.599971 6.684904 0.881479 2.316077 20.999060 3.122495 4.962637 17.791120 -0.682679 9.362600 -2.555349 -2.890594 -5.110906 1.306326 -4.930098 -10.879493 -16.194463 3.180788 117.614438 -55.336875 -125.424306 1.743670 -24.162508 -24.069778 -4.881955 3.685012 1.551677 23.317692 -14.130678 -1.788346 116.901895 -51.121909 -132.100795 3.275418 -25.729089 26.261887 -3.285673 -45.617222 3.184310 -97.819205 85.976908 -93.518692 -0.307933 -7.333099 -2.187335 0.520996 -0.868614 0.296952 -3.406387 -41.502938 3.526074 77.036682 83.065765 66.936814 -5.209298 -13.646415 7.827666 0.338868 1.248052 0.144699
-96.779851 64.169084 87.877852 173.642707 -36.298599 -2.298133 2.777796 25.473532 2.619526 0.372093 4.277187 0.552896 0.605851 6.705131 0.884550 2.344879 21.060677 3.135745 4.932646 17.767901 -0.702423 9.315197 -2.598785 -2.918930 -5.165082 1.425433 -4.932933 -11.149017 -16.161673 3.194745 117.905365 -55.866018 -125.817343 1.748498 -24.101663 -24.108880 -4.872421 3.793391 1.561345 23.607143 -14.099735 -1.874267 116.616979 -50.901080 -131.761338 3.250332 -25.700904 26.371849 -3.317664 -45.598881 3.186823 -97.509192 85.984688 -93.227546 -0.309869 -7.317220 -2.184670 0.524401 -0.860425 0.292255 -3.411044 -41.491416 3.506404 76.788974 83.069601 66.695289 -5.209325 -13.609088 7.821449 0.349631 1.247284 0.166113
-96.790075 64.175892 87.893085 173.616328 -36.305848 -2.293997 2.815601 25.547827 2.643347 0.371841 4.301028 0.556670 0.608373 6.684444 0.882473 2.379394 21.177265 3.157463 4.906462 17.743155 -0.727309 9.276556 -2.644348 -2.958083 -5.217983 1.548854 -4.939742 -11.418954 -16.110138 3.228712 118.178446 -56.334338 -126.181334 1.743441 -24.035568 -24.113938 -4.850766 3.906356 1.563758 23.888870 -14.059305 -1.949546 116.353087 -50.713892 -131.455201 3.215175 -25.674724 26.430358 -3.334837 -45.585857 3.215288 -96.959953 85.988316 -92.696644 -0.304002 -7.282819 -2.180687 0.525979 -0.854082 0.284699 -3.386477 -41.485448 3.492130 76.586961 83.062260 66.508996 -5.190173 -13.569471 7.837774 0.354217 1.230554 0.146584
-96.799195 64.184739 87.906839 173.581151 -36.322534 -2.295709 2.855798 25.627377 2.676153 0.379857 4.316825 0.557312 0.609143 6.671989 0.883143 2.411324 21.271149 3.171038 4.885956 17.716772 -0.753889 9.249035 -2.692419 -3.002377 -5.275462 1.677772 -4.948823 -11.692158 -16.039459 3.285978 118.415789 -56.733879 -126.495715 1.731655 -23.951596 -24.096067 -4.822798 4.025844 1.568113 24.155830 -14.010340 -2.010590 116.123646 -50.567048 -131.187789 3.175446 -25.649789 26.452245 -3.354758 -45.561431 3.255544 -96.386740 85.982868 -92.135993 -0.288835 -7.245758 -2.180000 0.523928 -0.851127 0.276348 -3.367248 -41.468808 3.493893 76.484727 83.045969 66.416820 -5.169359 -13.538390 7.844783 0.337680 1.216687 0.142116
-96.813150 64.192916 87.920120 173.546239 -36.331759 -2.281628 2.891077 25.691824 2.690509 0.387091 4.328780 0.556373 0.628921 6.789961 0.895836 2.420610 21.220307 3.163619 4.872750 17.690502 -0.779276 9.234614 -2.739881 -3.046697 -5.343448 1.809038 -4.956480 -11.962427 -15.949620 3.360699 118.600728 -57.064826 -126.751061 1.713101 -23.849564 -24.059655 -4.798654 4.147932 1.579736 24.403516 -13.946980 -2.051792 115.937176 -50.463930 -130.963798 3.139439 -25.626767 26.452608 -3.359159 -45.544228 3.270351 -95.866612 85.976027 -91.630185 -0.267506 -7.223445 -2.180637 0.516577 -0.838169 0.272415 -3.335052 -41.462921 3.466320 76.318245 83.034639 66.261930 -5.118877 -13.491883 7.847583 0.313115 1.191592 0.137676
-96.825138 64.200689 87.932463 173.525597 -36.335189 -2.287495 2.920087 25.740654 2.714571 0.398158 4.341124 0.555062 0.641445 6.838394 0.899867 2.440196 21.225250 3.164888 4.867000 17.663603 -0.802865 9.233403 -2.788154 -3.090175 -5.419068 1.932048 -4.960353 -12.227274 -15.834510 3.441290 118.740248 -57.329044 -126.959783 1.693123 -23.732748 -24.011427 -4.783617 4.263126 1.597392 24.631201 -13.863377 -2.071799 115.797327 -50.395512 -130.785918 3.100972 -25.599982 26.450933 -3.381178 -45.531566 3.297649 -95.361278 85.971272 -91.131768 -0.251108 -7.194149 -2.185092 0.501311 -0.824533 0.273408 -3.333475 -41.460141 3.479613 76.151716 83.044555 66.095346 -5.106760 -13.456852 7.848686 0.303211 1.185743 0.153190
-96.837657 64.209287 87.940852 173.503597 -36.344221 -2.290209 2.956249 25.791088 2.736715 0.407438 4.349985 0.553637 0.649532 6.857346 0.901249 2.463032 21.248021 3.167654 4.866879 17.635102 -0.824046 9.241769 -2.839145 -3.131343 -5.496019 2.038520 -4.959984 -12.487394 -15.689244 3.522487 118.846826 -57.525977 -127.131117 1.682964 -23.609391 -23.971123 -4.777371 4.368354 1.617073 24.844306 -13.762270 -2.073016 115.691848 -50.343951 -130.650588 3.054724 -25.565936 26.460139 -3.385676 -45.518912 3.317273 -94.960264 85.958012 -90.732055 -0.245587 -7.152001 -2.187096 0.507452 -0.833292 0.275838 -3.328527 -41.451659 3.492778 76.081142 83.044741 66.024759 -5.129302 -13.423836 7.860714 0.324324 1.171581 0.154131
